<svg width="16" height="16" viewBox="0 0 16 16" fill="none" xmlns="http://www.w3.org/2000/svg">
<g clip-path="url(#clip0_1_460)">
<path d="M3.65374 1.32785C3.5947 1.25191 3.52019 1.1894 3.43514 1.14448C3.35009 1.09955 3.25646 1.07323 3.16046 1.06727C3.06446 1.06132 2.96829 1.07585 2.87833 1.10992C2.78838 1.14398 2.70671 1.1968 2.63874 1.26485L1.60474 2.29985C1.12174 2.78385 0.943738 3.46885 1.15474 4.06985C2.03048 6.55744 3.45503 8.81595 5.32274 10.6779C7.18466 12.5455 9.44317 13.9701 11.9307 14.8459C12.5317 15.0569 13.2167 14.8789 13.7007 14.3959L14.7347 13.3619C14.8028 13.2939 14.8556 13.2122 14.8897 13.1223C14.9237 13.0323 14.9383 12.9361 14.9323 12.8401C14.9264 12.7441 14.9 12.6505 14.8551 12.5654C14.8102 12.4804 14.7477 12.4059 14.6717 12.3469L12.3647 10.5529C12.2836 10.4899 12.1892 10.4463 12.0888 10.4251C11.9883 10.404 11.8843 10.4059 11.7847 10.4309L9.59474 10.9779C9.30242 11.0509 8.99616 11.047 8.70578 10.9666C8.41541 10.8862 8.1508 10.7319 7.93774 10.5189L5.48174 8.06185C5.26851 7.84889 5.11406 7.58433 5.03345 7.29395C4.95284 7.00357 4.9488 6.69726 5.02174 6.40485L5.56974 4.21485C5.59465 4.11525 5.59661 4.01129 5.57547 3.91082C5.55434 3.81034 5.51066 3.71598 5.44774 3.63485L3.65374 1.32785ZM1.88374 0.510852C2.05873 0.335802 2.26897 0.199983 2.50048 0.112414C2.73199 0.0248446 2.97948 -0.0124708 3.22652 0.00294553C3.47356 0.0183618 3.71449 0.0861569 3.93332 0.201829C4.15215 0.317501 4.34386 0.478404 4.49574 0.673853L6.28974 2.97985C6.61874 3.40285 6.73474 3.95385 6.60474 4.47385L6.05774 6.66385C6.02946 6.77728 6.03098 6.8961 6.06217 7.00876C6.09336 7.12143 6.15315 7.22411 6.23574 7.30685L8.69274 9.76385C8.77558 9.84661 8.87843 9.9065 8.99129 9.93769C9.10415 9.96888 9.22316 9.97032 9.33674 9.94185L11.5257 9.39485C11.7824 9.33069 12.0502 9.32571 12.309 9.38028C12.5678 9.43485 12.8109 9.54755 13.0197 9.70985L15.3257 11.5039C16.1547 12.1489 16.2307 13.3739 15.4887 14.1149L14.4547 15.1489C13.7147 15.8889 12.6087 16.2139 11.5777 15.8509C8.93892 14.9224 6.54301 13.4117 4.56774 11.4309C2.58703 9.45587 1.07635 7.06031 0.147739 4.42185C-0.214261 3.39185 0.110739 2.28485 0.850739 1.54485L1.88474 0.510852H1.88374Z" fill="#949FA6"/>
</g>
<defs>
<clipPath id="clip0_1_460">
<rect width="16" height="16" fill="white"/>
</clipPath>
</defs>
</svg>
